0
SECTION
2
HEADER
9
$INSUNITS
70
4
9
$ACADVER
1
AC1014
9
$HANDSEED
5
FFFF
0
ENDSEC
0
SECTION
2
TABLES
0
TABLE
2
VPORT
5
8
100
AcDbSymbolTable
0
ENDTAB
0
TABLE
2
LTYPE
5
5
100
AcDbSymbolTable
0
LTYPE
5
14
100
AcDbSymbolTableRecord
100
AcDbLinetypeTableRecord
2
BYBLOCK
70
0
0
LTYPE
5
15
100
AcDbSymbolTableRecord
100
AcDbLinetypeTableRecord
2
BYLAYER
70
0
0
ENDTAB
0
TABLE
2
LAYER
5
2
100
AcDbSymbolTable
70
2
0
LAYER
5
50
100
AcDbSymbolTableRecord
100
AcDbLayerTableRecord
2
0
70
0
6
CONTINUOUS
0
ENDTAB
0
TABLE
2
STYLE
5
3
100
AcDbSymbolTable
70
1
0
STYLE
5
11
100
AcDbSymbolTableRecord
100
AcDbTextStyleTableRecord
2
STANDARD
70
0
0
ENDTAB
0
TABLE
2
VIEW
5
6
100
AcDbSymbolTable
70
0
0
ENDTAB
0
TABLE
2
UCS
5
7
100
AcDbSymbolTable
70
0
0
ENDTAB
0
TABLE
2
APPID
5
9
100
AcDbSymbolTable
70
2
0
APPID
5
12
100
AcDbSymbolTableRecord
100
AcDbRegAppTableRecord
2
ACAD
70
0
0
ENDTAB
0
TABLE
2
DIMSTYLE
5
A
100
AcDbSymbolTable
70
1
0
ENDTAB
0
TABLE
2
BLOCK_RECORD
5
1
100
AcDbSymbolTable
70
1
0
BLOCK_RECORD
5
1F
100
AcDbSymbolTableRecord
100
AcDbBlockTableRecord
2
*MODEL_SPACE
0
BLOCK_RECORD
5
1B
100
AcDbSymbolTableRecord
100
AcDbBlockTableRecord
2
*PAPER_SPACE
0
ENDTAB
0
ENDSEC
0
SECTION
2
BLOCKS
0
BLOCK
5
20
100
AcDbEntity
100
AcDbBlockBegin
2
*MODEL_SPACE
0
ENDBLK
5
21
100
AcDbEntity
100
AcDbBlockEnd
0
BLOCK
5
1C
100
AcDbEntity
100
AcDbBlockBegin
2
*PAPER_SPACE
0
ENDBLK
5
1D
100
AcDbEntity
100
AcDbBlockEnd
0
ENDSEC
0
SECTION
2
ENTITIES
0
CIRCLE
5
100
100
AcDbEntity
8
0
100
AcDbCircle
10
-123.82516699574218
20
50.850060226684661
30
0
40
1.25
210
2.373121720434123e-40
220
1.268146790750603e-63
230
1
0
CIRCLE
5
101
100
AcDbEntity
8
0
100
AcDbCircle
10
123.83283300425789
20
50.85006022668459
30
0
40
1.25
210
2.373121720434123e-40
220
1.268146790750603e-63
230
1
0
CIRCLE
5
102
100
AcDbEntity
8
0
100
AcDbCircle
10
0.0038330042578849088
20
50.850060226684626
30
0
40
1.2500000000000002
210
2.3731221583398931e-40
220
1.2681470247583204e-63
230
1
0
LWPOLYLINE
5
103
100
AcDbEntity
8
0
100
AcDbPolyline
90
8
70
1
43
0.0
10
138.26875459729001
20
25.050060226684554
10
138.26875459729001
20
13.050060226684561
10
137.26875459729001
20
12.050060226684565
10
124.66875459729002
20
12.050060226684565
10
123.66875459729
20
13.050060226684561
10
123.66875459729
20
25.050060226684554
10
124.66875459728999
20
26.050060226684568
10
137.26875459728998
20
26.050060226684568
0
LWPOLYLINE
5
104
100
AcDbEntity
8
0
100
AcDbPolyline
90
8
70
1
43
0.0
10
124.66875459728999
20
7.0000602266845746
10
137.26875459728998
20
7.0000602266845746
10
138.26875459729001
20
6.0000602266845693
10
138.26875459729001
20
-5.9999397733154325
10
137.26875459729001
20
-6.9999397733154289
10
124.66875459729002
20
-6.9999397733154289
10
123.66875459729
20
-5.9999397733154325
10
123.66875459729
20
6.0000602266845693
0
LWPOLYLINE
5
105
100
AcDbEntity
8
0
100
AcDbPolyline
90
8
70
1
43
0.0
10
-99.856245402710016
20
25.050060226684579
10
-99.856245402710016
20
13.050060226684588
10
-100.85624540271002
20
12.050060226684582
10
-113.45624540271001
20
12.050060226684582
10
-114.45624540271001
20
13.050060226684588
10
-114.45624540271001
20
25.050060226684579
10
-113.45624540271001
20
26.050060226684579
10
-100.85624540271002
20
26.050060226684579
0
LWPOLYLINE
5
106
100
AcDbEntity
8
0
100
AcDbPolyline
90
8
70
1
43
0.0
10
-140.64999540271003
20
13.050060226684588
10
-140.64999540271003
20
25.050060226684579
10
-139.64999540271003
20
26.050060226684579
10
-127.04999540271001
20
26.050060226684579
10
-126.04999540270998
20
25.050060226684579
10
-126.04999540270998
20
13.050060226684588
10
-127.04999540271001
20
12.050060226684582
10
-139.64999540271003
20
12.050060226684582
0
LWPOLYLINE
5
107
100
AcDbEntity
8
0
100
AcDbPolyline
90
6
70
1
43
0.0
10
-107.82499543388101
20
-45.099939763048482
10
-139.8249954369773
20
-45.099939763048447
10
-139.82499543542914
20
-32.599939763048454
10
-136.82499543542917
20
-31.099939763048468
10
-110.82499543542916
20
-31.099939763048468
10
-107.82499543542914
20
-32.599939763048454
0
LWPOLYLINE
5
108
100
AcDbEntity
8
0
100
AcDbPolyline
90
8
70
1
43
0.0
10
116.83750459729005
20
25.050060226684572
10
116.83750459729005
20
13.050060226684579
10
115.83750459729004
20
12.050060226684574
10
103.23750459729001
20
12.050060226684574
10
102.23750459729003
20
13.050060226684579
10
102.23750459729004
20
25.050060226684572
10
103.23750459729004
20
26.050060226684568
10
115.83750459729004
20
26.050060226684568
0
LWPOLYLINE
5
109
100
AcDbEntity
8
0
100
AcDbPolyline
90
8
70
1
43
0.0
10
-88.262495402709959
20
44.100060226684583
10
-87.262495402709988
20
45.100060226684576
10
-74.662495402709965
20
45.100060226684576
10
-73.662495402709993
20
44.100060226684583
10
-73.662495402709993
20
32.100060226684576
10
-74.662495402709965
20
31.100060226684576
10
-87.262495402709988
20
31.100060226684576
10
-88.262495402709959
20
32.100060226684576
0
LWPOLYLINE
5
110
100
AcDbEntity
8
0
100
AcDbPolyline
90
8
70
1
43
0.0
10
73.662504597290038
20
32.100060226684576
10
73.662504597290038
20
44.100060226684583
10
74.662504597290038
20
45.100060226684576
10
87.262504597290032
20
45.100060226684576
10
88.262504597290032
20
44.100060226684583
10
88.262504597290032
20
32.100060226684576
10
87.262504597290032
20
31.100060226684576
10
74.662504597290038
20
31.100060226684576
0
LWPOLYLINE
5
111
100
AcDbEntity
8
0
100
AcDbPolyline
90
8
70
1
43
0.0
10
112.07500459729005
20
32.100060226684576
10
111.07500459729005
20
31.100060226684576
10
98.475004597290038
20
31.100060226684576
10
97.475004597290038
20
32.100060226684576
10
97.475004597290038
20
44.100060226684583
10
98.475004597290038
20
45.100060226684576
10
111.07500459729003
20
45.100060226684576
10
112.07500459729003
20
44.100060226684583
0
LWPOLYLINE
5
112
100
AcDbEntity
8
0
100
AcDbPolyline
90
8
70
1
43
0.0
10
-50.418995402709967
20
44.463560226684571
10
-50.418995402709967
20
31.736560226684574
10
-50.918995402709974
20
31.229560226684576
10
-63.380995402709992
20
31.229560226684576
10
-63.880995402709999
20
31.736560226684574
10
-63.880995402709999
20
44.463560226684571
10
-63.373995402709973
20
44.970560226684583
10
-50.925995402709958
20
44.970560226684583
0
LWPOLYLINE
5
113
100
AcDbEntity
8
0
100
AcDbPolyline
90
8
70
1
43
0.0
10
-97.474995402709965
20
32.100060226684576
10
-98.474995402709993
20
31.100060226684576
10
-111.07499540270996
20
31.100060226684576
10
-112.07499540270999
20
32.100060226684576
10
-112.07499540270999
20
44.100060226684583
10
-111.07499540270996
20
45.100060226684576
10
-98.474995402709993
20
45.100060226684576
10
-97.474995402709965
20
44.100060226684583
0
LWPOLYLINE
5
114
100
AcDbEntity
8
0
100
AcDbPolyline
90
8
70
1
43
0.0
10
63.380604597290038
20
44.970560226684583
10
63.887604597290029
20
44.463560226684571
10
63.887604597290029
20
31.736560226684574
10
63.380604597290038
20
31.229560226684576
10
50.932604597290037
20
31.229560226684576
10
50.425604597290032
20
31.736560226684574
10
50.425604597290032
20
44.463560226684571
10
50.932604597290037
20
44.970560226684583
0
LWPOLYLINE
5
115
100
AcDbEntity
8
0
100
AcDbPolyline
90
8
70
1
43
0.0
10
121.28750459729004
20
44.100060226684583
10
122.28750459729002
20
45.100060226684576
10
134.88750459729002
20
45.100060226684576
10
135.88750459729002
20
44.100060226684583
10
135.88750459729002
20
32.100060226684576
10
134.88750459729002
20
31.100060226684576
10
122.28750459729002
20
31.100060226684576
10
121.28750459729004
20
32.100060226684576
0
LWPOLYLINE
5
116
100
AcDbEntity
8
0
100
AcDbPolyline
90
8
70
1
43
0.0
10
-7.2999954027099534
20
44.100060226684583
10
-6.2999954027099569
20
45.100060226684576
10
6.3000045972900409
20
45.100060226684576
10
7.3000045972900374
20
44.100060226684583
10
7.3000045972900374
20
32.100060226684576
10
6.3000045972900409
20
31.100060226684576
10
-6.2999954027099569
20
31.100060226684576
10
-7.2999954027099534
20
32.100060226684576
0
LWPOLYLINE
5
117
100
AcDbEntity
8
0
100
AcDbPolyline
90
8
70
1
43
0.0
10
-122.28749540270996
20
31.100060226684576
10
-134.88749540270999
20
31.100060226684576
10
-135.88749540270996
20
32.100060226684576
10
-135.88749540270996
20
44.100060226684583
10
-134.88749540270999
20
45.100060226684576
10
-122.28749540270996
20
45.100060226684576
10
-121.28749540270999
20
44.100060226684583
10
-121.28749540270999
20
32.100060226684576
0
CIRCLE
5
118
100
AcDbEntity
8
0
100
AcDbCircle
10
-95.119683402709967
20
38.10006022668459
30
0
40
1.1000000000000001
210
0
220
0
230
1
0
CIRCLE
5
119
100
AcDbEntity
8
0
100
AcDbCircle
10
-9.5249954027099548
20
38.10006022668459
30
0
40
1.1000000000000001
210
0
220
0
230
1
0
CIRCLE
5
120
100
AcDbEntity
8
0
100
AcDbCircle
10
-90.487495402709968
20
19.050060226684565
30
0
40
1.1000000000000001
210
0
220
0
230
1
0
LWPOLYLINE
5
121
100
AcDbEntity
8
0
100
AcDbPolyline
90
8
70
1
43
0.0
10
-87.262495402709988
20
12.050060226684574
10
-88.262495402709959
20
13.050060226684579
10
-88.262495402709959
20
25.050060226684572
10
-87.262495402709988
20
26.050060226684568
10
-74.662495402709965
20
26.050060226684568
10
-73.662495402709993
20
25.050060226684572
10
-73.662495402709993
20
13.050060226684579
10
-74.662495402709965
20
12.050060226684574
0
LWPOLYLINE
5
122
100
AcDbEntity
8
0
100
AcDbPolyline
90
8
70
1
43
0.0
10
-116.83749540270998
20
6.0000602266845693
10
-115.83749540271
20
7.0000602266845746
10
-103.23749540270995
20
7.0000602266845746
10
-102.23749540270998
20
6.0000602266845693
10
-102.23749540270998
20
-5.9999397733154325
10
-103.23749540270995
20
-6.9999397733154289
10
-115.83749540271
20
-6.9999397733154289
10
-116.83749540270998
20
-5.9999397733154325
0
CIRCLE
5
123
100
AcDbEntity
8
0
100
AcDbCircle
10
-100.01249540270997
20
6.0226684572839417e-05
30
0
40
1.1000000000000001
210
0
220
0
230
1
0
LWPOLYLINE
5
124
100
AcDbEntity
8
0
100
AcDbPolyline
90
8
70
1
43
0.0
10
-84.18749540270997
20
-6.9999397733154289
10
-96.787495402709993
20
-6.9999397733154289
10
-97.787495402709965
20
-5.9999397733154325
10
-97.787495402709965
20
6.0000602266845693
10
-96.787495402709993
20
7.0000602266845746
10
-84.18749540270997
20
7.0000602266845746
10
-83.187495402709999
20
6.0000602266845693
10
-83.187495402709999
20
-5.9999397733154325
0
LWPOLYLINE
5
125
100
AcDbEntity
8
0
100
AcDbPolyline
90
8
70
1
43
0.0
10
-65.137495402709959
20
7.0000602266845746
10
-64.137495402709988
20
6.0000602266845693
10
-64.137495402709988
20
-5.9999397733154325
10
-65.137495402709959
20
-6.9999397733154289
10
-77.737495402709982
20
-6.9999397733154289
10
-78.737495402709953
20
-5.9999397733154325
10
-78.737495402709953
20
6.0000602266845693
10
-77.737495402709982
20
7.0000602266845746
0
LWPOLYLINE
5
126
100
AcDbEntity
8
0
100
AcDbPolyline
90
8
70
1
43
0.0
10
-69.212495402709948
20
13.050060226684579
10
-69.212495402709948
20
25.050060226684572
10
-68.212495402709976
20
26.050060226684568
10
-55.612495402709961
20
26.050060226684568
10
-54.612495402709982
20
25.050060226684572
10
-54.612495402709982
20
13.050060226684579
10
-55.612495402709961
20
12.050060226684574
10
-68.212495402709976
20
12.050060226684574
0
CIRCLE
5
127
100
AcDbEntity
8
0
100
AcDbCircle
10
-52.38749540270998
20
19.050060226684565
30
0
40
1.1000000000000001
210
0
220
0
230
1
0
LWPOLYLINE
5
128
100
AcDbEntity
8
0
100
AcDbPolyline
90
8
70
1
43
0.0
10
-50.162495402709979
20
13.050060226684579
10
-50.162495402709979
20
25.050060226684572
10
-49.162495402709965
20
26.050060226684568
10
-36.562495402709985
20
26.050060226684568
10
-35.56249540270997
20
25.050060226684572
10
-35.56249540270997
20
13.050060226684579
10
-36.562495402709985
20
12.050060226684574
10
-49.162495402709965
20
12.050060226684574
0
LWPOLYLINE
5
129
100
AcDbEntity
8
0
100
AcDbPolyline
90
8
70
1
43
0.0
10
-16.512495402709959
20
25.050060226684572
10
-16.512495402709959
20
13.050060226684579
10
-17.512495402709973
20
12.050060226684574
10
-30.112495402709953
20
12.050060226684574
10
-31.112495402709968
20
13.050060226684579
10
-31.112495402709968
20
25.050060226684572
10
-30.112495402709953
20
26.050060226684568
10
-17.512495402709973
20
26.050060226684568
0
CIRCLE
5
130
100
AcDbEntity
8
0
100
AcDbCircle
10
-14.287495402709975
20
19.050060226684565
30
0
40
1.1000000000000001
210
0
220
0
230
1
0
LWPOLYLINE
5
131
100
AcDbEntity
8
0
100
AcDbPolyline
90
8
70
1
43
0.0
10
-11.062495402709978
20
26.050060226684568
10
1.5375045972900381
20
26.050060226684568
10
2.5375045972900523
20
25.050060226684572
10
2.5375045972900523
20
13.050060226684579
10
1.5375045972900381
20
12.050060226684574
10
-11.062495402709978
20
12.050060226684574
10
-12.062495402709974
20
13.050060226684579
10
-12.062495402709974
20
25.050060226684572
0
CIRCLE
5
132
100
AcDbEntity
8
0
100
AcDbCircle
10
-61.912495402709986
20
6.0226684572839417e-05
30
0
40
1.1000000000000001
210
0
220
0
230
1
0
LWPOLYLINE
5
133
100
AcDbEntity
8
0
100
AcDbPolyline
90
8
70
1
43
0.0
10
-45.087495402709941
20
-5.9999397733154325
10
-46.087495402709955
20
-6.9999397733154289
10
-58.68749540270997
20
-6.9999397733154289
10
-59.687495402709985
20
-5.9999397733154325
10
-59.687495402709985
20
6.0000602266845693
10
-58.68749540270997
20
7.0000602266845746
10
-46.087495402709955
20
7.0000602266845746
10
-45.087495402709941
20
6.0000602266845693
0
LWPOLYLINE
5
134
100
AcDbEntity
8
0
100
AcDbPolyline
90
8
70
1
43
0.0
10
-40.637495402709973
20
-5.9999397733154325
10
-40.637495402709973
20
6.0000602266845693
10
-39.637495402709959
20
7.0000602266845746
10
-27.037495402709979
20
7.0000602266845746
10
-26.037495402709965
20
6.0000602266845693
10
-26.037495402709965
20
-5.9999397733154325
10
-27.037495402709979
20
-6.9999397733154289
10
-39.637495402709959
20
-6.9999397733154289
0
CIRCLE
5
135
100
AcDbEntity
8
0
100
AcDbCircle
10
-23.812495402709963
20
6.0226684572839417e-05
30
0
40
1.1000000000000001
210
0
220
0
230
1
0
LWPOLYLINE
5
136
100
AcDbEntity
8
0
100
AcDbPolyline
90
8
70
1
43
0.0
10
-20.587495402709948
20
7.0000602266845746
10
-7.9874954027099676
20
7.0000602266845746
10
-6.9874954027099534
20
6.0000602266845693
10
-6.9874954027099534
20
-5.9999397733154325
10
-7.9874954027099676
20
-6.9999397733154289
10
-20.587495402709948
20
-6.9999397733154289
10
-21.587495402709962
20
-5.9999397733154325
10
-21.587495402709962
20
6.0000602266845693
0
CIRCLE
5
137
100
AcDbEntity
8
0
100
AcDbCircle
10
69.056254597290035
20
38.10006022668459
30
0
40
1.1000000000000001
210
0
220
0
230
1
0
CIRCLE
5
138
100
AcDbEntity
8
0
100
AcDbCircle
10
116.68124059729003
20
38.10006022668459
30
0
40
1.1000000000000001
210
0
220
0
230
1
0
LWPOLYLINE
5
139
100
AcDbEntity
8
0
100
AcDbPolyline
90
8
70
1
43
0.0
10
7.9875045972900338
20
26.050060226684568
10
20.587504597290032
20
26.050060226684568
10
21.587504597290028
20
25.050060226684572
10
21.587504597290028
20
13.050060226684579
10
20.587504597290032
20
12.050060226684574
10
7.9875045972900338
20
12.050060226684574
10
6.9875045972900374
20
13.050060226684579
10
6.9875045972900374
20
25.050060226684572
0
LWPOLYLINE
5
140
100
AcDbEntity
8
0
100
AcDbPolyline
90
8
70
1
43
0.0
10
26.037504597290031
20
13.050060226684579
10
26.037504597290031
20
25.050060226684572
10
27.037504597290027
20
26.050060226684568
10
39.637504597290025
20
26.050060226684568
10
40.637504597290018
20
25.050060226684572
10
40.637504597290018
20
13.050060226684579
10
39.637504597290025
20
12.050060226684574
10
27.037504597290027
20
12.050060226684574
0
LWPOLYLINE
5
141
100
AcDbEntity
8
0
100
AcDbPolyline
90
8
70
1
43
0.0
10
59.68750459729003
20
13.050060226684579
10
58.687504597290037
20
12.050060226684574
10
46.087504597290021
20
12.050060226684574
10
45.087504597290021
20
13.050060226684579
10
45.087504597290021
20
25.050060226684572
10
46.087504597290021
20
26.050060226684568
10
58.687504597290037
20
26.050060226684568
10
59.68750459729003
20
25.050060226684572
0
CIRCLE
5
142
100
AcDbEntity
8
0
100
AcDbCircle
10
61.912504597290038
20
19.050060226684565
30
0
40
1.1000000000000001
210
0
220
0
230
1
0
LWPOLYLINE
5
143
100
AcDbEntity
8
0
100
AcDbPolyline
90
8
70
1
43
0.0
10
11.062504597290026
20
7.0000602266845746
10
12.062504597290022
20
6.0000602266845693
10
12.062504597290022
20
-5.9999397733154325
10
11.062504597290026
20
-6.9999397733154289
10
-1.5374954027099719
20
-6.9999397733154289
10
-2.5374954027099683
20
-5.9999397733154325
10
-2.5374954027099683
20
6.0000602266845693
10
-1.5374954027099719
20
7.0000602266845746
0
LWPOLYLINE
5
144
100
AcDbEntity
8
0
100
AcDbPolyline
90
8
70
1
43
0.0
10
16.512504597290025
20
-5.9999397733154325
10
16.512504597290025
20
6.0000602266845693
10
17.512504597290022
20
7.0000602266845746
10
30.112504597290037
20
7.0000602266845746
10
31.112504597290034
20
6.0000602266845693
10
31.112504597290034
20
-5.9999397733154325
10
30.112504597290037
20
-6.9999397733154289
10
17.512504597290022
20
-6.9999397733154289
0
LWPOLYLINE
5
145
100
AcDbEntity
8
0
100
AcDbPolyline
90
8
70
1
43
0.0
10
50.162504597290024
20
6.0000602266845693
10
50.162504597290024
20
-5.9999397733154325
10
49.162504597290031
20
-6.9999397733154289
10
36.56250459729003
20
-6.9999397733154289
10
35.562504597290037
20
-5.9999397733154325
10
35.562504597290037
20
6.0000602266845693
10
36.56250459729003
20
7.0000602266845746
10
49.162504597290031
20
7.0000602266845746
0
CIRCLE
5
146
100
AcDbEntity
8
0
100
AcDbCircle
10
52.387504597290032
20
6.0226684572839417e-05
30
0
40
1.1000000000000001
210
0
220
0
230
1
0
LWPOLYLINE
5
147
100
AcDbEntity
8
0
100
AcDbPolyline
90
8
70
1
43
0.0
10
54.612504597290027
20
6.0000602266845693
10
55.612504597290041
20
7.0000602266845746
10
68.212504597290035
20
7.0000602266845746
10
69.212504597290035
20
6.0000602266845693
10
69.212504597290035
20
-5.9999397733154325
10
68.212504597290035
20
-6.9999397733154289
10
55.612504597290041
20
-6.9999397733154289
10
54.612504597290027
20
-5.9999397733154325
0
LWPOLYLINE
5
148
100
AcDbEntity
8
0
100
AcDbPolyline
90
8
70
1
43
0.0
10
77.737504597290041
20
12.050060226684574
10
65.137504597290032
20
12.050060226684574
10
64.137504597290032
20
13.050060226684579
10
64.137504597290032
20
25.050060226684572
10
65.137504597290032
20
26.050060226684568
10
77.737504597290041
20
26.050060226684568
10
78.737504597290041
20
25.050060226684572
10
78.737504597290041
20
13.050060226684579
0
LWPOLYLINE
5
149
100
AcDbEntity
8
0
100
AcDbPolyline
90
8
70
1
43
0.0
10
96.787504597290024
20
26.050060226684568
10
97.787504597290038
20
25.050060226684572
10
97.787504597290038
20
13.050060226684579
10
96.787504597290024
20
12.050060226684574
10
84.18750459729003
20
12.050060226684574
10
83.18750459729003
20
13.050060226684579
10
83.18750459729003
20
25.050060226684572
10
84.187504597290044
20
26.050060226684568
0
CIRCLE
5
150
100
AcDbEntity
8
0
100
AcDbCircle
10
100.01250459729005
20
19.050060226684565
30
0
40
1.1000000000000001
210
0
220
0
230
1
0
LWPOLYLINE
5
151
100
AcDbEntity
8
0
100
AcDbPolyline
90
8
70
1
43
0.0
10
87.262504597290032
20
-6.9999397733154289
10
74.662504597290038
20
-6.9999397733154289
10
73.662504597290038
20
-5.9999397733154325
10
73.662504597290038
20
6.0000602266845693
10
74.662504597290038
20
7.0000602266845746
10
87.262504597290032
20
7.0000602266845746
10
88.262504597290032
20
6.0000602266845693
10
88.262504597290032
20
-5.9999397733154325
0
CIRCLE
5
152
100
AcDbEntity
8
0
100
AcDbCircle
10
90.487504597290041
20
6.0226684572839417e-05
30
0
40
1.1000000000000001
210
0
220
0
230
1
0
LWPOLYLINE
5
153
100
AcDbEntity
8
0
100
AcDbPolyline
90
8
70
1
43
0.0
10
92.712504597290035
20
6.0000602266845693
10
93.712504597290049
20
7.0000602266845746
10
106.31250459729004
20
7.0000602266845746
10
107.31250459729003
20
6.0000602266845693
10
107.31250459729004
20
-5.9999397733154325
10
106.31250459729004
20
-6.9999397733154289
10
93.712504597290035
20
-6.9999397733154289
10
92.712504597290035
20
-5.9999397733154325
0
LWPOLYLINE
5
154
100
AcDbEntity
8
0
100
AcDbPolyline
90
8
70
1
43
0.0
10
-123.96874540270997
20
-22.524939773315431
10
-125.46874540270994
20
-25.524939773315431
10
-130.96874540270994
20
-25.524939773315431
10
-137.96874540270994
20
-25.524939773315431
10
-137.96874540270994
20
6.4750602266845725
10
-130.96874540270994
20
6.4750602266845725
10
-125.46874540270994
20
6.4750602266845725
10
-123.96874540270997
20
3.4750602266845743
0
CIRCLE
5
155
100
AcDbEntity
8
0
100
AcDbCircle
10
-117.60199540271
20
-19.387939773315427
30
0
40
1.1000000000000001
210
0
220
0
230
1
0
LWPOLYLINE
5
156
100
AcDbEntity
8
0
100
AcDbPolyline
90
8
70
1
43
0.0
10
-111.07499540270996
20
-12.049939773315428
10
-98.474995402709993
20
-12.049939773315428
10
-97.474995402709965
20
-13.04993977331543
10
-97.474995402709965
20
-25.04993977331543
10
-98.474995402709993
20
-26.049939773315426
10
-111.07499540270996
20
-26.049939773315426
10
-112.07499540270999
20
-25.04993977331543
10
-112.07499540270999
20
-13.04993977331543
0
LWPOLYLINE
5
157
100
AcDbEntity
8
0
100
AcDbPolyline
90
8
70
1
43
0.0
10
-79.424995402709982
20
-12.049939773315428
10
-78.424995402709953
20
-13.04993977331543
10
-78.424995402709953
20
-25.04993977331543
10
-79.424995402709982
20
-26.049939773315426
10
-92.024995402709948
20
-26.049939773315426
10
-93.024995402709976
20
-25.04993977331543
10
-93.024995402709976
20
-13.04993977331543
10
-92.024995402709948
20
-12.049939773315428
0
CIRCLE
5
158
100
AcDbEntity
8
0
100
AcDbCircle
10
-76.199995402709959
20
-19.04993977331543
30
0
40
1.1000000000000001
210
0
220
0
230
1
0
LWPOLYLINE
5
159
100
AcDbEntity
8
0
100
AcDbPolyline
90
8
70
1
43
0.0
10
-60.374995402709999
20
-12.049939773315428
10
-59.374995402709985
20
-13.04993977331543
10
-59.374995402709985
20
-25.04993977331543
10
-60.374995402709999
20
-26.049939773315426
10
-72.974995402709979
20
-26.049939773315426
10
-73.974995402709993
20
-25.04993977331543
10
-73.974995402709993
20
-13.04993977331543
10
-72.974995402709979
20
-12.049939773315428
0
LWPOLYLINE
5
160
100
AcDbEntity
8
0
100
AcDbPolyline
90
8
70
1
43
0.0
10
-40.324995402709973
20
-25.04993977331543
10
-41.324995402709952
20
-26.049939773315426
10
-53.924995402709968
20
-26.049939773315426
10
-54.924995402709982
20
-25.04993977331543
10
-54.924995402709982
20
-13.04993977331543
10
-53.924995402709968
20
-12.049939773315428
10
-41.324995402709952
20
-12.049939773315428
10
-40.324995402709973
20
-13.04993977331543
0
CIRCLE
5
161
100
AcDbEntity
8
0
100
AcDbCircle
10
-38.099995402709972
20
-19.04993977331543
30
0
40
1.1000000000000001
210
0
220
0
230
1
0
LWPOLYLINE
5
162
100
AcDbEntity
8
0
100
AcDbPolyline
90
8
70
1
43
0.0
10
-21.274995402709962
20
-13.04993977331543
10
-21.274995402709962
20
-25.04993977331543
10
-22.274995402709941
20
-26.049939773315426
10
-34.874995402709992
20
-26.049939773315426
10
-35.87499540270997
20
-25.04993977331543
10
-35.87499540270997
20
-13.04993977331543
10
-34.874995402709992
20
-12.049939773315428
10
-22.274995402709941
20
-12.049939773315428
0
LWPOLYLINE
5
163
100
AcDbEntity
8
0
100
AcDbPolyline
90
8
70
1
43
0.0
10
-2.2249954027099683
20
-13.04993977331543
10
-2.2249954027099683
20
-25.04993977331543
10
-3.2249954027099648
20
-26.049939773315426
10
-15.824995402709963
20
-26.049939773315426
10
-16.824995402709959
20
-25.04993977331543
10
-16.824995402709959
20
-13.04993977331543
10
-15.824995402709963
20
-12.049939773315428
10
-3.2249954027099648
20
-12.049939773315428
0
CIRCLE
5
164
100
AcDbEntity
8
0
100
AcDbCircle
10
-104.77499540270998
20
-38.099939773315434
30
0
40
1.1000000000000001
210
0
220
0
230
1
0
LWPOLYLINE
5
165
100
AcDbEntity
8
0
100
AcDbPolyline
90
8
70
1
43
0.0
10
-88.949995402709988
20
-31.09993977331543
10
-87.949995402709959
20
-32.099939773315427
10
-87.949995402709959
20
-44.099939773315427
10
-88.949995402709988
20
-45.099939773315427
10
-101.54999540270995
20
-45.099939773315434
10
-102.54999540270998
20
-44.099939773315441
10
-102.54999540270998
20
-32.099939773315427
10
-101.54999540270995
20
-31.09993977331543
0
LWPOLYLINE
5
166
100
AcDbEntity
8
0
100
AcDbPolyline
90
8
70
1
43
0.0
10
-68.899995402709948
20
-32.099939773315427
10
-68.899995402709948
20
-44.099939773315427
10
-69.899995402709976
20
-45.099939773315427
10
-82.499995402709985
20
-45.099939773315434
10
-83.499995402709999
20
-44.099939773315441
10
-83.499995402709999
20
-32.099939773315427
10
-82.499995402709985
20
-31.09993977331543
10
-69.899995402709976
20
-31.09993977331543
0
LWPOLYLINE
5
167
100
AcDbEntity
8
0
100
AcDbPolyline
90
8
70
1
43
0.0
10
-64.449995402709988
20
-32.099939773315427
10
-63.449995402709973
20
-31.09993977331543
10
-50.849995402709993
20
-31.09993977331543
10
-49.849995402709979
20
-32.099939773315427
10
-49.849995402709979
20
-44.099939773315427
10
-50.849995402709993
20
-45.099939773315427
10
-63.449995402709973
20
-45.099939773315434
10
-64.449995402709988
20
-44.099939773315441
0
CIRCLE
5
168
100
AcDbEntity
8
0
100
AcDbCircle
10
-47.624995402709978
20
-38.099939773315434
30
0
40
1.1000000000000001
210
0
220
0
230
1
0
LWPOLYLINE
5
169
100
AcDbEntity
8
0
100
AcDbPolyline
90
8
70
1
43
0.0
10
-31.799995402709946
20
-31.09993977331543
10
-30.799995402709968
20
-32.099939773315427
10
-30.799995402709968
20
-44.099939773315427
10
-31.799995402709946
20
-45.099939773315427
10
-44.399995402709962
20
-45.099939773315434
10
-45.399995402709941
20
-44.099939773315441
10
-45.399995402709941
20
-32.099939773315427
10
-44.399995402709962
20
-31.09993977331543
0
LWPOLYLINE
5
170
100
AcDbEntity
8
0
100
AcDbPolyline
90
8
70
1
43
0.0
10
-11.749995402709974
20
-44.099939773315427
10
-12.74999540270997
20
-45.099939773315427
10
-25.349995402709986
20
-45.099939773315434
10
-26.349995402709965
20
-44.099939773315441
10
-26.349995402709965
20
-32.099939773315427
10
-25.349995402709986
20
-31.09993977331543
10
-12.74999540270997
20
-31.09993977331543
10
-11.749995402709974
20
-32.099939773315427
0
CIRCLE
5
171
100
AcDbEntity
8
0
100
AcDbCircle
10
-9.5249954027099548
20
-38.099939773315434
30
0
40
1.1000000000000001
210
0
220
0
230
1
0
CIRCLE
5
172
100
AcDbEntity
8
0
100
AcDbCircle
10
14.30000459729003
20
-0.29993977331542965
30
0
40
1.1000000000000001
210
0
220
0
230
1
0
CIRCLE
5
173
100
AcDbEntity
8
0
100
AcDbCircle
10
4.5972900153401497e-06
20
-19.04993977331543
30
0
40
1.1000000000000001
210
0
220
0
230
1
0
LWPOLYLINE
5
174
100
AcDbEntity
8
0
100
AcDbPolyline
90
8
70
1
43
0.0
10
3.2250045972900487
20
-12.049939773315428
10
15.825004597290029
20
-12.049939773315428
10
16.825004597290025
20
-13.04993977331543
10
16.825004597290025
20
-25.04993977331543
10
15.825004597290029
20
-26.049939773315426
10
3.2250045972900487
20
-26.049939773315426
10
2.2250045972900523
20
-25.04993977331543
10
2.2250045972900523
20
-13.04993977331543
0
LWPOLYLINE
5
175
100
AcDbEntity
8
0
100
AcDbPolyline
90
8
70
1
43
0.0
10
21.275004597290028
20
-13.04993977331543
10
22.275004597290025
20
-12.049939773315428
10
34.875004597290044
20
-12.049939773315428
10
35.875004597290037
20
-13.04993977331543
10
35.875004597290037
20
-25.04993977331543
10
34.875004597290044
20
-26.049939773315426
10
22.275004597290025
20
-26.049939773315426
10
21.275004597290028
20
-25.04993977331543
0
CIRCLE
5
176
100
AcDbEntity
8
0
100
AcDbCircle
10
38.100004597290038
20
-19.04993977331543
30
0
40
1.1000000000000001
210
0
220
0
230
1
0
LWPOLYLINE
5
177
100
AcDbEntity
8
0
100
AcDbPolyline
90
8
70
1
43
0.0
10
54.925004597290027
20
-25.04993977331543
10
53.925004597290034
20
-26.049939773315426
10
41.325004597290018
20
-26.049939773315426
10
40.325004597290018
20
-25.04993977331543
10
40.325004597290018
20
-13.04993977331543
10
41.325004597290018
20
-12.049939773315428
10
53.925004597290034
20
-12.049939773315428
10
54.925004597290027
20
-13.04993977331543
0
LWPOLYLINE
5
178
100
AcDbEntity
8
0
100
AcDbPolyline
90
8
70
1
43
0.0
10
60.375004597290044
20
-12.049939773315428
10
72.975004597290038
20
-12.049939773315428
10
73.975004597290038
20
-13.04993977331543
10
73.975004597290038
20
-25.04993977331543
10
72.975004597290038
20
-26.049939773315426
10
60.375004597290044
20
-26.049939773315426
10
59.37500459729003
20
-25.04993977331543
10
59.37500459729003
20
-13.04993977331543
0
CIRCLE
5
179
100
AcDbEntity
8
0
100
AcDbCircle
10
76.200004597290018
20
-19.04993977331543
30
0
40
1.1000000000000001
210
0
220
0
230
1
0
LWPOLYLINE
5
180
100
AcDbEntity
8
0
100
AcDbPolyline
90
8
70
1
43
0.0
10
79.425004597290041
20
-26.049939773315426
10
78.425004597290041
20
-25.04993977331543
10
78.425004597290041
20
-13.04993977331543
10
79.425004597290041
20
-12.049939773315428
10
92.025004597290035
20
-12.049939773315428
10
93.025004597290035
20
-13.04993977331543
10
93.025004597290035
20
-25.04993977331543
10
92.025004597290035
20
-26.049939773315426
0
LWPOLYLINE
5
181
100
AcDbEntity
8
0
100
AcDbPolyline
90
8
70
1
43
0.0
10
97.475004597290038
20
-13.04993977331543
10
98.475004597290038
20
-12.049939773315428
10
111.07500459729003
20
-12.049939773315428
10
112.07500459729003
20
-13.04993977331543
10
112.07500459729005
20
-25.04993977331543
10
111.07500459729005
20
-26.049939773315426
10
98.475004597290038
20
-26.049939773315426
10
97.475004597290038
20
-25.04993977331543
0
CIRCLE
5
182
100
AcDbEntity
8
0
100
AcDbCircle
10
117.30000459729004
20
-19.399939773315431
30
0
40
1.1000000000000001
210
0
220
0
230
1
0
LWPOLYLINE
5
183
100
AcDbEntity
8
0
100
AcDbPolyline
90
8
70
1
43
0.0
10
122.28750459729002
20
-26.049939773315426
10
121.28750459729004
20
-25.04993977331543
10
121.28750459729004
20
-13.04993977331543
10
122.28750459729002
20
-12.049939773315428
10
134.88750459729002
20
-12.049939773315428
10
135.88750459729005
20
-13.04993977331543
10
135.88750459729005
20
-25.04993977331543
10
134.88750459729005
20
-26.049939773315426
0
CIRCLE
5
184
100
AcDbEntity
8
0
100
AcDbCircle
10
138.11250459729004
20
-19.04993977331543
30
0
40
1.1000000000000001
210
0
220
0
230
1
0
LWPOLYLINE
5
185
100
AcDbEntity
8
0
100
AcDbPolyline
90
8
70
1
43
0.0
10
-6.2999954027099569
20
-31.09993977331543
10
6.3000045972900409
20
-31.09993977331543
10
7.3000045972900374
20
-32.099939773315427
10
7.3000045972900374
20
-44.099939773315427
10
6.3000045972900409
20
-45.099939773315427
10
-6.2999954027099569
20
-45.099939773315434
10
-7.2999954027099534
20
-44.099939773315441
10
-7.2999954027099534
20
-32.099939773315427
0
LWPOLYLINE
5
186
100
AcDbEntity
8
0
100
AcDbPolyline
90
8
70
1
43
0.0
10
26.350004597290031
20
-44.099939773315427
10
25.350004597290035
20
-45.099939773315427
10
12.750004597290019
20
-45.099939773315434
10
11.750004597290022
20
-44.099939773315441
10
11.750004597290022
20
-32.099939773315427
10
12.750004597290019
20
-31.09993977331543
10
25.350004597290035
20
-31.09993977331543
10
26.350004597290031
20
-32.099939773315427
0
CIRCLE
5
187
100
AcDbEntity
8
0
100
AcDbCircle
10
28.575004597290032
20
-38.099939773315434
30
0
40
1.1000000000000001
210
0
220
0
230
1
0
LWPOLYLINE
5
188
100
AcDbEntity
8
0
100
AcDbPolyline
90
8
70
1
43
0.0
10
45.400004597290021
20
-32.099939773315427
10
45.400004597290021
20
-44.099939773315427
10
44.400004597290028
20
-45.099939773315427
10
31.80000459729003
20
-45.099939773315434
10
30.800004597290034
20
-44.099939773315441
10
30.800004597290034
20
-32.099939773315427
10
31.80000459729003
20
-31.09993977331543
10
44.400004597290028
20
-31.09993977331543
0
LWPOLYLINE
5
189
100
AcDbEntity
8
0
100
AcDbPolyline
90
8
70
1
43
0.0
10
50.850004597290038
20
-31.09993977331543
10
63.450004597290032
20
-31.09993977331543
10
64.450004597290032
20
-32.099939773315427
10
64.450004597290032
20
-44.099939773315427
10
63.450004597290032
20
-45.099939773315427
10
50.850004597290038
20
-45.099939773315434
10
49.850004597290024
20
-44.099939773315441
10
49.850004597290024
20
-32.099939773315427
0
CIRCLE
5
190
100
AcDbEntity
8
0
100
AcDbCircle
10
66.675004597290041
20
-38.099939773315434
30
0
40
1.1000000000000001
210
0
220
0
230
1
0
LWPOLYLINE
5
191
100
AcDbEntity
8
0
100
AcDbPolyline
90
8
70
1
43
0.0
10
69.900004597290035
20
-31.09993977331543
10
82.50000459729003
20
-31.09993977331543
10
83.50000459729003
20
-32.099939773315427
10
83.50000459729003
20
-44.099939773315427
10
82.50000459729003
20
-45.099939773315427
10
69.900004597290035
20
-45.099939773315434
10
68.900004597290035
20
-44.099939773315441
10
68.900004597290035
20
-32.099939773315427
0
LWPOLYLINE
5
192
100
AcDbEntity
8
0
100
AcDbPolyline
90
8
70
1
43
0.0
10
88.950004597290047
20
-45.099939773315434
10
87.950004597290032
20
-44.099939773315441
10
87.950004597290032
20
-32.099939773315427
10
88.950004597290047
20
-31.09993977331543
10
101.55000459729004
20
-31.09993977331543
10
102.55000459729004
20
-32.099939773315427
10
102.55000459729004
20
-44.099939773315427
10
101.55000459729003
20
-45.099939773315427
0
CIRCLE
5
193
100
AcDbEntity
8
0
100
AcDbCircle
10
104.77500459729004
20
-38.099939773315434
30
0
40
1.1000000000000001
210
0
220
0
230
1
0
LWPOLYLINE
5
194
100
AcDbEntity
8
0
100
AcDbPolyline
90
8
70
1
43
0.0
10
120.60000459729004
20
-31.09993977331543
10
121.60000459729004
20
-32.099939773315427
10
121.60000459729004
20
-44.099939773315427
10
120.60000459729004
20
-45.099939773315427
10
108.00000459729004
20
-45.099939773315434
10
107.00000459729004
20
-44.099939773315441
10
107.00000459729004
20
-32.099939773315427
10
108.00000459729004
20
-31.09993977331543
0
LWPOLYLINE
5
195
100
AcDbEntity
8
0
100
AcDbPolyline
90
8
70
1
43
0.0
10
139.65000459729004
20
-45.099939773315434
10
127.05000459729004
20
-45.099939773315434
10
126.05000459729004
20
-44.099939773315441
10
126.05000459729004
20
-32.099939773315427
10
127.05000459729004
20
-31.09993977331543
10
139.65000459729004
20
-31.09993977331543
10
140.65000459729004
20
-32.099939773315427
10
140.65000459729004
20
-44.099939773315427
0
CIRCLE
5
196
100
AcDbEntity
8
0
100
AcDbCircle
10
123.83283300425789
20
-50.849939773315484
30
0
40
1.25
210
2.373121720434123e-40
220
1.268146790750603e-63
230
1
0
CIRCLE
5
197
100
AcDbEntity
8
0
100
AcDbCircle
10
0.0038330042578493817
20
-50.849939773315427
30
0
40
1.2500000000000002
210
2.3731221583398931e-40
220
1.2681470247583204e-63
230
1
0
CIRCLE
5
198
100
AcDbEntity
8
0
100
AcDbCircle
10
-123.82516699574218
20
-50.849939773315391
30
0
40
1.25
210
2.373121720434123e-40
220
1.268146790750603e-63
230
1
0
LWPOLYLINE
5
199
100
AcDbEntity
8
0
100
AcDbPolyline
90
67
70
1
43
0.0
10
-2.4961737125459571
20
49.611196608505175
10
-2.4961737125459482
20
49.300060226684543
42
-0.41421356237309515
10
-4.4961737125459509
20
47.300060226684543
10
-119.32527859683009
20
47.300060226684565
42
-0.41421356237309509
10
-121.32527859683009
20
49.300060226684565
10
-121.32527859683009
20
50.22441510790582
10
-121.32530433330814
20
50.823855857423581
42
1.0015807978001281
10
-126.3250999660294
20
50.868367167197341
10
-126.32509996602941
20
49.300060226684543
42
-0.41421356237309509
10
-128.3250999660294
20
47.300060226684543
10
-140.49999540270994
20
47.300060226684565
42
0.41421356237309509
10
-142.49999540270994
20
45.300060226684579
10
-142.49999540270994
20
11.000060226684569
10
-139.99999540270994
20
11.000060226684575
42
-0.99999999999999989
10
-139.99999540270994
20
8.0000602266845746
10
-142.49999540270994
20
8.0000602266845711
10
-142.49999540270994
20
-45.29993977331543
42
0.41421356237309509
10
-140.49999540270994
20
-47.29993977331543
10
-128.32511281422398
20
-47.299939773315444
42
-0.41421356237309509
10
-126.32511281422398
20
-49.29993977331543
10
-126.32511281422403
20
-50.246572576482862
10
-126.32509996602937
20
-50.868246713828071
42
1.0015807978001809
10
-121.32530433330817
20
-50.82373540405429
10
-121.32527859683016
20
-50.224294654536564
10
-121.32527859683016
20
-49.29993977331543
42
-0.41421356237309509
10
-119.32527859683017
20
-47.29993977331543
10
-4.4961669957421257
20
-47.29993977331543
42
-0.41421356237309509
10
-2.4961669957421257
20
-49.29993977331543
10
-2.4961669957421142
20
-49.612081573833613
42
-0.0016021206063152667
10
-2.496125662418645
20
-49.624898439137667
10
-2.4960999660293663
20
-50.868246713828107
42
1.0015807978001809
10
2.5036956666918524
20
-50.823735404054332
10
2.5037214031698873
20
-50.224294654536607
10
2.5037214031698785
20
-49.29993977331543
42
-0.41421356237309515
10
4.5037214031698811
20
-47.29993977331543
10
119.33283300425779
20
-47.299939773315444
42
-0.41421356237309509
10
121.33283300425779
20
-49.29993977331543
10
121.33283300425781
20
-49.612081573823666
42
-0.0016021206075582757
10
121.33287433758134
20
-49.624898439137667
10
121.33290003397066
20
-50.868246713828142
42
1.0015807978001456
10
126.33269566669192
20
-50.823735404054474
10
126.33272140316993
20
-50.224294654536685
10
126.33272140316993
20
-49.29993977331543
42
-0.41421356237309637
10
128.33272140316993
20
-47.299939773315423
10
140.50000459729003
20
-47.29993977331543
42
0.41421063345858794
10
142.50000459729003
20
-45.29993977331543
10
142.50000459729006
20
8.0000602266845711
10
140.00000459729003
20
8.0000602266849086
42
-0.41422137298464068
10
138.50000459729037
20
9.5000602266845746
42
-0.41422137298464068
10
140.00000459729003
20
11.000060226684242
10
142.50000459729006
20
11.000060226684569
10
142.50000459729003
20
45.300060226684579
42
0.41421063345858666
10
140.50000459729003
20
47.300060226684586
10
128.3326956666919
20
47.300060226684565
42
-0.41421356237309509
10
126.33269566669192
20
49.300060226684565
10
126.3326956666919
20
50.82385585742351
42
1.0015807978001456
10
121.33290003397067
20
50.86836716719727
10
121.33287433758136
20
49.625018892506823
42
-0.0017278011000106551
10
121.3328262874539
20
49.611196608488193
10
121.33282628745388
20
49.300060226684565
42
-0.41421356237309509
10
119.33282628745388
20
47.300060226684558
10
4.5037214031699335
20
47.300060226684558
42
-0.41421356237309509
10
2.5037214031699335
20
49.300060226684565
10
2.5037214031699406
20
50.224415107905784
10
2.5036956666918897
20
50.823855857423546
42
1.0015807978001456
10
-2.4960999660293322
20
50.868367167197306
10
-2.4961256624186152
20
49.62501889250683
42
-0.0017278010978901228
0
ENDSEC
0
SECTION
2
OBJECTS
0
DICTIONARY
5
C
100
AcDbDictionary
3
ACAD_GROUP
350
D
3
ACAD_MLINESTYLE
350
17
0
DICTIONARY
5
D
100
AcDbDictionary
0
DICTIONARY
5
1A
330
C
100
AcDbDictionary
0
DICTIONARY
5
17
100
AcDbDictionary
0
ENDSEC
0
EOF
