%TF.GenerationSoftware,KiCad,Pcbnew,(6.0.9)*%
%TF.CreationDate,2022-11-03T22:17:30+01:00*%
%TF.ProjectId,plate_iso,706c6174-655f-4697-936f-2e6b69636164,rev?*%
%TF.SameCoordinates,Original*%
%TF.FileFunction,Profile,NP*%
%FSLAX46Y46*%
G04 Gerber Fmt 4.6, Leading zero omitted, Abs format (unit mm)*
G04 Created by KiCad (PCBNEW (6.0.9)) date 2022-11-03 22:17:30*
%MOMM*%
%LPD*%
G01*
G04 APERTURE LIST*
%TA.AperFunction,Profile*%
%ADD10C,0.200000*%
%TD*%
G04 APERTURE END LIST*
D10*
X151972631Y-137477961D02*
X151972679Y-137464139D01*
X151972605Y-138721309D02*
X151972631Y-137477961D01*
X146972809Y-138676798D02*
G75*
G03*
X151972605Y-138721309I2499863J-26204D01*
G01*
X146972784Y-138077357D02*
X146972809Y-138676798D01*
X146972784Y-137153002D02*
X146972784Y-138077357D01*
X146972785Y-137153002D02*
G75*
G03*
X144972784Y-135153002I-2000000J0D01*
G01*
X30143679Y-135153002D02*
X144972784Y-135153002D01*
X30143679Y-135153016D02*
G75*
G03*
X28143679Y-137153002I26J-2000026D01*
G01*
X28143679Y-137464139D02*
X28143679Y-137153002D01*
X28143631Y-137477961D02*
X28143679Y-137464139D01*
X28143605Y-138721309D02*
X28143631Y-137477961D01*
X23143815Y-138676798D02*
G75*
G03*
X28143605Y-138721309I2499860J-26204D01*
G01*
X23143809Y-137153002D02*
X23143809Y-138676798D01*
X23143845Y-137153002D02*
G75*
G03*
X21143809Y-135153002I-2000040J-40D01*
G01*
X8976500Y-135153002D02*
X21143809Y-135153002D01*
X6976445Y-133153002D02*
G75*
G03*
X8976500Y-135153002I2000060J60D01*
G01*
X6976500Y-98853002D02*
X6976500Y-133153002D01*
X9476500Y-98853002D02*
X6976500Y-98853002D01*
X9476500Y-98853037D02*
G75*
G03*
X10976500Y-97353002I5J1499995D01*
G01*
X10976445Y-97353002D02*
G75*
G03*
X9476500Y-95853002I-1499940J60D01*
G01*
X6976500Y-95853002D02*
X9476500Y-95853002D01*
X6976500Y-42553002D02*
X6976500Y-95853002D01*
X8976500Y-40553037D02*
G75*
G03*
X6976500Y-42553002I5J-2000005D01*
G01*
X21143784Y-40553002D02*
X8976500Y-40553002D01*
X21143784Y-40553021D02*
G75*
G03*
X23143784Y-38553002I21J1999979D01*
G01*
X23143784Y-37628647D02*
X23143784Y-38553002D01*
X23143809Y-37029207D02*
X23143784Y-37628647D01*
X28143611Y-36984695D02*
G75*
G03*
X23143809Y-37029207I-2499936J-18307D01*
G01*
X28143631Y-38228044D02*
X28143605Y-36984695D01*
X28143672Y-38240860D02*
X28143631Y-38228044D01*
X28143672Y-38553002D02*
X28143672Y-38240860D01*
X28143745Y-38553002D02*
G75*
G03*
X30143672Y-40553002I1999960J-40D01*
G01*
X144972784Y-40553002D02*
X30143672Y-40553002D01*
X144972784Y-40553001D02*
G75*
G03*
X146972784Y-38553002I1J1999999D01*
G01*
X146972784Y-37628647D02*
X146972784Y-38553002D01*
X146972809Y-37029207D02*
X146972784Y-37628647D01*
X151972605Y-36984695D02*
G75*
G03*
X146972809Y-37029207I-2499933J-18307D01*
G01*
X151972631Y-38228044D02*
X151972605Y-36984695D01*
X151972672Y-38240860D02*
X151972631Y-38228044D01*
X151972672Y-38553002D02*
X151972672Y-38240860D01*
X151972672Y-38553002D02*
G75*
G03*
X153972672Y-40553002I1999999J-1D01*
G01*
X268801784Y-40553002D02*
X153972672Y-40553002D01*
X268801784Y-40553002D02*
G75*
G03*
X270801784Y-38553002I0J2000000D01*
G01*
X270801784Y-37628647D02*
X270801784Y-38553002D01*
X270801809Y-37029207D02*
X270801784Y-37628647D01*
X275801605Y-36984695D02*
G75*
G03*
X270801809Y-37029207I-2499933J-18307D01*
G01*
X275801618Y-37606369D02*
X275801605Y-36984695D01*
X275801618Y-38553002D02*
X275801618Y-37606369D01*
X275801618Y-38553002D02*
G75*
G03*
X277801618Y-40553002I1999999J-1D01*
G01*
X289976500Y-40553002D02*
X277801618Y-40553002D01*
X291976500Y-42553002D02*
G75*
G03*
X289976500Y-40553002I-2000000J0D01*
G01*
X291976500Y-95853002D02*
X291976500Y-42553002D01*
X289476500Y-95853002D02*
X291976500Y-95853002D01*
X289476500Y-95853002D02*
G75*
G03*
X289476500Y-98853002I0J-1500000D01*
G01*
X291976500Y-98853002D02*
X289476500Y-98853002D01*
X291976500Y-133153002D02*
X291976500Y-98853002D01*
X289976500Y-135153002D02*
G75*
G03*
X291976500Y-133153002I1J1999999D01*
G01*
X277801605Y-135153002D02*
X289976500Y-135153002D01*
X277801605Y-135153002D02*
G75*
G03*
X275801605Y-137153002I0J-2000000D01*
G01*
X275801605Y-138721309D02*
X275801605Y-137153002D01*
X270801809Y-138676798D02*
G75*
G03*
X275801605Y-138721309I2499863J-26204D01*
G01*
X270801784Y-138077357D02*
X270801809Y-138676798D01*
X270801784Y-137153002D02*
X270801784Y-138077357D01*
X270801784Y-137153002D02*
G75*
G03*
X268801784Y-135153002I-2000002J-2D01*
G01*
X153972679Y-135153002D02*
X268801784Y-135153002D01*
X153972679Y-135153002D02*
G75*
G03*
X151972679Y-137153002I0J-2000000D01*
G01*
X151972679Y-137464139D02*
X151972679Y-137153002D01*
X274551672Y-37003002D02*
G75*
G03*
X274551672Y-37003002I-1250000J0D01*
G01*
X150722672Y-37003002D02*
G75*
G03*
X150722672Y-37003002I-1250000J0D01*
G01*
X26893672Y-37003002D02*
G75*
G03*
X26893672Y-37003002I-1250000J0D01*
G01*
X8826500Y-43753002D02*
X9826500Y-42753002D01*
X8826500Y-55753002D02*
X8826500Y-43753002D01*
X9826500Y-56753002D02*
X8826500Y-55753002D01*
X22426500Y-56753002D02*
X9826500Y-56753002D01*
X23426500Y-55753002D02*
X22426500Y-56753002D01*
X23426500Y-43753002D02*
X23426500Y-55753002D01*
X22426500Y-42753002D02*
X23426500Y-43753002D01*
X9826500Y-42753002D02*
X22426500Y-42753002D01*
X41476500Y-56753002D02*
X28876500Y-56753002D01*
X42476500Y-55753002D02*
X41476500Y-56753002D01*
X42476500Y-43753002D02*
X42476500Y-55753002D01*
X41476500Y-42753002D02*
X42476500Y-43753002D01*
X28876500Y-42753002D02*
X41476500Y-42753002D01*
X27876500Y-43753002D02*
X28876500Y-42753002D01*
X27876500Y-55753002D02*
X27876500Y-43753002D01*
X28876500Y-56753002D02*
X27876500Y-55753002D01*
X45801500Y-49753002D02*
G75*
G03*
X45801500Y-49753002I-1100000J0D01*
G01*
X47926500Y-42753002D02*
X60526500Y-42753002D01*
X46926500Y-43753002D02*
X47926500Y-42753002D01*
X46926500Y-55753002D02*
X46926500Y-43753002D01*
X47926500Y-56753002D02*
X46926500Y-55753002D01*
X60526500Y-56753002D02*
X47926500Y-56753002D01*
X61526500Y-55753002D02*
X60526500Y-56753002D01*
X61526500Y-43753002D02*
X61526500Y-55753002D01*
X60526500Y-42753002D02*
X61526500Y-43753002D01*
X80576500Y-55753002D02*
X79576500Y-56753002D01*
X80576500Y-43753002D02*
X80576500Y-55753002D01*
X79576500Y-42753002D02*
X80576500Y-43753002D01*
X66976500Y-42753002D02*
X79576500Y-42753002D01*
X65976500Y-43753002D02*
X66976500Y-42753002D01*
X65976500Y-55753002D02*
X65976500Y-43753002D01*
X66976500Y-56753002D02*
X65976500Y-55753002D01*
X79576500Y-56753002D02*
X66976500Y-56753002D01*
X83901500Y-49753002D02*
G75*
G03*
X83901500Y-49753002I-1100000J0D01*
G01*
X99626500Y-55753002D02*
X98626500Y-56753002D01*
X99626500Y-43753002D02*
X99626500Y-55753002D01*
X98626500Y-42753002D02*
X99626500Y-43753002D01*
X86026500Y-42753002D02*
X98626500Y-42753002D01*
X85026500Y-43753002D02*
X86026500Y-42753002D01*
X85026500Y-55753002D02*
X85026500Y-43753002D01*
X86026500Y-56753002D02*
X85026500Y-55753002D01*
X98626500Y-56753002D02*
X86026500Y-56753002D01*
X105076500Y-56753002D02*
X104076500Y-55753002D01*
X117676500Y-56753002D02*
X105076500Y-56753002D01*
X118676500Y-55753002D02*
X117676500Y-56753002D01*
X118676500Y-43753002D02*
X118676500Y-55753002D01*
X117676500Y-42753002D02*
X118676500Y-43753002D01*
X105076500Y-42753002D02*
X117676500Y-42753002D01*
X104076500Y-43753002D02*
X105076500Y-42753002D01*
X104076500Y-55753002D02*
X104076500Y-43753002D01*
X122001500Y-49753002D02*
G75*
G03*
X122001500Y-49753002I-1100000J0D01*
G01*
X123126500Y-55753002D02*
X123126500Y-43753002D01*
X124126500Y-56753002D02*
X123126500Y-55753002D01*
X136726500Y-56753002D02*
X124126500Y-56753002D01*
X137726500Y-55753002D02*
X136726500Y-56753002D01*
X137726500Y-43753002D02*
X137726500Y-55753002D01*
X136726500Y-42753002D02*
X137726500Y-43753002D01*
X124126500Y-42753002D02*
X136726500Y-42753002D01*
X123126500Y-43753002D02*
X124126500Y-42753002D01*
X156776500Y-55753002D02*
X155776500Y-56753002D01*
X156776500Y-43753002D02*
X156776500Y-55753002D01*
X155776500Y-42753002D02*
X156776500Y-43753002D01*
X143176500Y-42753002D02*
X155776500Y-42753002D01*
X142176500Y-43753002D02*
X143176500Y-42753002D01*
X142176500Y-55753002D02*
X142176500Y-43753002D01*
X143176500Y-56753002D02*
X142176500Y-55753002D01*
X155776500Y-56753002D02*
X143176500Y-56753002D01*
X12464000Y-68803002D02*
G75*
G03*
X12464000Y-68803002I-1100000J0D01*
G01*
X14589000Y-61803002D02*
X27189000Y-61803002D01*
X13589000Y-62803002D02*
X14589000Y-61803002D01*
X13589000Y-74803002D02*
X13589000Y-62803002D01*
X14589000Y-75803002D02*
X13589000Y-74803002D01*
X27189000Y-75803002D02*
X14589000Y-75803002D01*
X28189000Y-74803002D02*
X27189000Y-75803002D01*
X28189000Y-62803002D02*
X28189000Y-74803002D01*
X27189000Y-61803002D02*
X28189000Y-62803002D01*
X33276500Y-68453002D02*
G75*
G03*
X33276500Y-68453002I-1100000J0D01*
G01*
X52001500Y-62803002D02*
X52001500Y-74803002D01*
X51001500Y-61803002D02*
X52001500Y-62803002D01*
X38401500Y-61803002D02*
X51001500Y-61803002D01*
X37401500Y-62803002D02*
X38401500Y-61803002D01*
X37401500Y-74803002D02*
X37401500Y-62803002D01*
X38401500Y-75803002D02*
X37401500Y-74803002D01*
X51001500Y-75803002D02*
X38401500Y-75803002D01*
X52001500Y-74803002D02*
X51001500Y-75803002D01*
X57451500Y-61803002D02*
X70051500Y-61803002D01*
X56451500Y-62803002D02*
X57451500Y-61803002D01*
X56451500Y-74803002D02*
X56451500Y-62803002D01*
X57451500Y-75803002D02*
X56451500Y-74803002D01*
X70051500Y-75803002D02*
X57451500Y-75803002D01*
X71051500Y-74803002D02*
X70051500Y-75803002D01*
X71051500Y-62803002D02*
X71051500Y-74803002D01*
X70051500Y-61803002D02*
X71051500Y-62803002D01*
X74376500Y-68803002D02*
G75*
G03*
X74376500Y-68803002I-1100000J0D01*
G01*
X90101500Y-74803002D02*
X89101500Y-75803002D01*
X90101500Y-62803002D02*
X90101500Y-74803002D01*
X89101500Y-61803002D02*
X90101500Y-62803002D01*
X76501500Y-61803002D02*
X89101500Y-61803002D01*
X75501500Y-62803002D02*
X76501500Y-61803002D01*
X75501500Y-74803002D02*
X75501500Y-62803002D01*
X76501500Y-75803002D02*
X75501500Y-74803002D01*
X89101500Y-75803002D02*
X76501500Y-75803002D01*
X94551500Y-74803002D02*
X94551500Y-62803002D01*
X95551500Y-75803002D02*
X94551500Y-74803002D01*
X108151500Y-75803002D02*
X95551500Y-75803002D01*
X109151500Y-74803002D02*
X108151500Y-75803002D01*
X109151500Y-62803002D02*
X109151500Y-74803002D01*
X108151500Y-61803002D02*
X109151500Y-62803002D01*
X95551500Y-61803002D02*
X108151500Y-61803002D01*
X94551500Y-62803002D02*
X95551500Y-61803002D01*
X112476500Y-68803002D02*
G75*
G03*
X112476500Y-68803002I-1100000J0D01*
G01*
X128201500Y-62803002D02*
X128201500Y-74803002D01*
X127201500Y-61803002D02*
X128201500Y-62803002D01*
X114601500Y-61803002D02*
X127201500Y-61803002D01*
X113601500Y-62803002D02*
X114601500Y-61803002D01*
X113601500Y-74803002D02*
X113601500Y-62803002D01*
X114601500Y-75803002D02*
X113601500Y-74803002D01*
X127201500Y-75803002D02*
X114601500Y-75803002D01*
X128201500Y-74803002D02*
X127201500Y-75803002D01*
X147251500Y-74803002D02*
X146251500Y-75803002D01*
X147251500Y-62803002D02*
X147251500Y-74803002D01*
X146251500Y-61803002D02*
X147251500Y-62803002D01*
X133651500Y-61803002D02*
X146251500Y-61803002D01*
X132651500Y-62803002D02*
X133651500Y-61803002D01*
X132651500Y-74803002D02*
X132651500Y-62803002D01*
X133651500Y-75803002D02*
X132651500Y-74803002D01*
X146251500Y-75803002D02*
X133651500Y-75803002D01*
X150576500Y-68803002D02*
G75*
G03*
X150576500Y-68803002I-1100000J0D01*
G01*
X136276500Y-87553002D02*
G75*
G03*
X136276500Y-87553002I-1100000J0D01*
G01*
X160101500Y-49753002D02*
G75*
G03*
X160101500Y-49753002I-1100000J0D01*
G01*
X161226500Y-55753002D02*
X161226500Y-43753002D01*
X162226500Y-56753002D02*
X161226500Y-55753002D01*
X174826500Y-56753002D02*
X162226500Y-56753002D01*
X175826500Y-55753002D02*
X174826500Y-56753002D01*
X175826500Y-43753002D02*
X175826500Y-55753002D01*
X174826500Y-42753002D02*
X175826500Y-43753002D01*
X162226500Y-42753002D02*
X174826500Y-42753002D01*
X161226500Y-43753002D02*
X162226500Y-42753002D01*
X193876500Y-56753002D02*
X181276500Y-56753002D01*
X194876500Y-55753002D02*
X193876500Y-56753002D01*
X194876500Y-43753002D02*
X194876500Y-55753002D01*
X193876500Y-42753002D02*
X194876500Y-43753002D01*
X181276500Y-42753002D02*
X193876500Y-42753002D01*
X180276500Y-43753002D02*
X181276500Y-42753002D01*
X180276500Y-55753002D02*
X180276500Y-43753002D01*
X181276500Y-56753002D02*
X180276500Y-55753002D01*
X198201500Y-49753002D02*
G75*
G03*
X198201500Y-49753002I-1100000J0D01*
G01*
X213926500Y-43753002D02*
X213926500Y-55753002D01*
X212926500Y-42753002D02*
X213926500Y-43753002D01*
X200326500Y-42753002D02*
X212926500Y-42753002D01*
X199326500Y-43753002D02*
X200326500Y-42753002D01*
X199326500Y-55753002D02*
X199326500Y-43753002D01*
X200326500Y-56753002D02*
X199326500Y-55753002D01*
X212926500Y-56753002D02*
X200326500Y-56753002D01*
X213926500Y-55753002D02*
X212926500Y-56753002D01*
X219376500Y-56753002D02*
X218376500Y-55753002D01*
X231976500Y-56753002D02*
X219376500Y-56753002D01*
X232976500Y-55753002D02*
X231976500Y-56753002D01*
X232976500Y-43753002D02*
X232976500Y-55753002D01*
X231976500Y-42753002D02*
X232976500Y-43753002D01*
X219376500Y-42753002D02*
X231976500Y-42753002D01*
X218376500Y-43753002D02*
X219376500Y-42753002D01*
X218376500Y-55753002D02*
X218376500Y-43753002D01*
X251026500Y-56753002D02*
X238426500Y-56753002D01*
X252026500Y-55753002D02*
X251026500Y-56753002D01*
X252026500Y-43753002D02*
X252026500Y-55753002D01*
X251026500Y-42753002D02*
X252026500Y-43753002D01*
X238426500Y-42753002D02*
X251026500Y-42753002D01*
X237426500Y-43753002D02*
X238426500Y-42753002D01*
X237426500Y-55753002D02*
X237426500Y-43753002D01*
X238426500Y-56753002D02*
X237426500Y-55753002D01*
X255351500Y-49753002D02*
G75*
G03*
X255351500Y-49753002I-1100000J0D01*
G01*
X152701500Y-75803002D02*
X151701500Y-74803002D01*
X165301500Y-75803002D02*
X152701500Y-75803002D01*
X166301500Y-74803002D02*
X165301500Y-75803002D01*
X166301500Y-62803002D02*
X166301500Y-74803002D01*
X165301500Y-61803002D02*
X166301500Y-62803002D01*
X152701500Y-61803002D02*
X165301500Y-61803002D01*
X151701500Y-62803002D02*
X152701500Y-61803002D01*
X151701500Y-74803002D02*
X151701500Y-62803002D01*
X171751500Y-75803002D02*
X170751500Y-74803002D01*
X184351500Y-75803002D02*
X171751500Y-75803002D01*
X185351500Y-74803002D02*
X184351500Y-75803002D01*
X185351500Y-62803002D02*
X185351500Y-74803002D01*
X184351500Y-61803002D02*
X185351500Y-62803002D01*
X171751500Y-61803002D02*
X184351500Y-61803002D01*
X170751500Y-62803002D02*
X171751500Y-61803002D01*
X170751500Y-74803002D02*
X170751500Y-62803002D01*
X188676500Y-68803002D02*
G75*
G03*
X188676500Y-68803002I-1100000J0D01*
G01*
X189801500Y-74803002D02*
X189801500Y-62803002D01*
X190801500Y-75803002D02*
X189801500Y-74803002D01*
X203401500Y-75803002D02*
X190801500Y-75803002D01*
X204401500Y-74803002D02*
X203401500Y-75803002D01*
X204401500Y-62803002D02*
X204401500Y-74803002D01*
X203401500Y-61803002D02*
X204401500Y-62803002D01*
X190801500Y-61803002D02*
X203401500Y-61803002D01*
X189801500Y-62803002D02*
X190801500Y-61803002D01*
X222451500Y-75803002D02*
X209851500Y-75803002D01*
X223451500Y-74803002D02*
X222451500Y-75803002D01*
X223451500Y-62803002D02*
X223451500Y-74803002D01*
X222451500Y-61803002D02*
X223451500Y-62803002D01*
X209851500Y-61803002D02*
X222451500Y-61803002D01*
X208851500Y-62803002D02*
X209851500Y-61803002D01*
X208851500Y-74803002D02*
X208851500Y-62803002D01*
X209851500Y-75803002D02*
X208851500Y-74803002D01*
X226776500Y-68803002D02*
G75*
G03*
X226776500Y-68803002I-1100000J0D01*
G01*
X241501500Y-75803002D02*
X228901500Y-75803002D01*
X242501500Y-74803002D02*
X241501500Y-75803002D01*
X242501500Y-62803002D02*
X242501500Y-74803002D01*
X241501500Y-61803002D02*
X242501500Y-62803002D01*
X228901500Y-61803002D02*
X241501500Y-61803002D01*
X227901500Y-62803002D02*
X228901500Y-61803002D01*
X227901500Y-74803002D02*
X227901500Y-62803002D01*
X228901500Y-75803002D02*
X227901500Y-74803002D01*
X261551500Y-74803002D02*
X260551500Y-75803002D01*
X261551500Y-62803002D02*
X261551500Y-74803002D01*
X260551500Y-61803002D02*
X261551500Y-62803002D01*
X247951500Y-61803002D02*
X260551500Y-61803002D01*
X246951500Y-62803002D02*
X247951500Y-61803002D01*
X246951500Y-74803002D02*
X246951500Y-62803002D01*
X247951500Y-75803002D02*
X246951500Y-74803002D01*
X260551500Y-75803002D02*
X247951500Y-75803002D01*
X268178500Y-68465002D02*
G75*
G03*
X268178500Y-68465002I-1100000J0D01*
G01*
X273445250Y-91328002D02*
X273445250Y-65328002D01*
X274945250Y-94328002D02*
X273445250Y-91328002D01*
X280445250Y-94328002D02*
X274945250Y-94328002D01*
X287445250Y-94328002D02*
X280445250Y-94328002D01*
X287445250Y-62328002D02*
X287445250Y-94328002D01*
X280445250Y-62328002D02*
X287445250Y-62328002D01*
X274945250Y-62328002D02*
X280445250Y-62328002D01*
X273445250Y-65328002D02*
X274945250Y-62328002D01*
X56764000Y-81853002D02*
X56764000Y-93853002D01*
X55764000Y-80853002D02*
X56764000Y-81853002D01*
X43164000Y-80853002D02*
X55764000Y-80853002D01*
X42164000Y-81853002D02*
X43164000Y-80853002D01*
X42164000Y-93853002D02*
X42164000Y-81853002D01*
X43164000Y-94853002D02*
X42164000Y-93853002D01*
X55764000Y-94853002D02*
X43164000Y-94853002D01*
X56764000Y-93853002D02*
X55764000Y-94853002D01*
X60089000Y-87853002D02*
G75*
G03*
X60089000Y-87853002I-1100000J0D01*
G01*
X61214000Y-81853002D02*
X62214000Y-80853002D01*
X61214000Y-93853002D02*
X61214000Y-81853002D01*
X62214000Y-94853002D02*
X61214000Y-93853002D01*
X74814000Y-94853002D02*
X62214000Y-94853002D01*
X75814000Y-93853002D02*
X74814000Y-94853002D01*
X75814000Y-81853002D02*
X75814000Y-93853002D01*
X74814000Y-80853002D02*
X75814000Y-81853002D01*
X62214000Y-80853002D02*
X74814000Y-80853002D01*
X50564000Y-106903002D02*
G75*
G03*
X50564000Y-106903002I-1100000J0D01*
G01*
X65289000Y-113903002D02*
X52689000Y-113903002D01*
X66289000Y-112903002D02*
X65289000Y-113903002D01*
X66289000Y-100903002D02*
X66289000Y-112903002D01*
X65289000Y-99903002D02*
X66289000Y-100903002D01*
X52689000Y-99903002D02*
X65289000Y-99903002D01*
X51689000Y-100903002D02*
X52689000Y-99903002D01*
X51689000Y-112903002D02*
X51689000Y-100903002D01*
X52689000Y-113903002D02*
X51689000Y-112903002D01*
X70739000Y-100903002D02*
X71739000Y-99903002D01*
X70739000Y-112903002D02*
X70739000Y-100903002D01*
X71739000Y-113903002D02*
X70739000Y-112903002D01*
X84339000Y-113903002D02*
X71739000Y-113903002D01*
X85339000Y-112903002D02*
X84339000Y-113903002D01*
X85339000Y-100903002D02*
X85339000Y-112903002D01*
X84339000Y-99903002D02*
X85339000Y-100903002D01*
X71739000Y-99903002D02*
X84339000Y-99903002D01*
X94864000Y-81853002D02*
X94864000Y-93853002D01*
X93864000Y-80853002D02*
X94864000Y-81853002D01*
X81264000Y-80853002D02*
X93864000Y-80853002D01*
X80264000Y-81853002D02*
X81264000Y-80853002D01*
X80264000Y-93853002D02*
X80264000Y-81853002D01*
X81264000Y-94853002D02*
X80264000Y-93853002D01*
X93864000Y-94853002D02*
X81264000Y-94853002D01*
X94864000Y-93853002D02*
X93864000Y-94853002D01*
X98189000Y-87853002D02*
G75*
G03*
X98189000Y-87853002I-1100000J0D01*
G01*
X100314000Y-94853002D02*
X99314000Y-93853002D01*
X112914000Y-94853002D02*
X100314000Y-94853002D01*
X113914000Y-93853002D02*
X112914000Y-94853002D01*
X113914000Y-81853002D02*
X113914000Y-93853002D01*
X112914000Y-80853002D02*
X113914000Y-81853002D01*
X100314000Y-80853002D02*
X112914000Y-80853002D01*
X99314000Y-81853002D02*
X100314000Y-80853002D01*
X99314000Y-93853002D02*
X99314000Y-81853002D01*
X131964000Y-80853002D02*
X132964000Y-81853002D01*
X119364000Y-80853002D02*
X131964000Y-80853002D01*
X118364000Y-81853002D02*
X119364000Y-80853002D01*
X118364000Y-93853002D02*
X118364000Y-81853002D01*
X119364000Y-94853002D02*
X118364000Y-93853002D01*
X131964000Y-94853002D02*
X119364000Y-94853002D01*
X132964000Y-93853002D02*
X131964000Y-94853002D01*
X132964000Y-81853002D02*
X132964000Y-93853002D01*
X151014000Y-94853002D02*
X138414000Y-94853002D01*
X152014000Y-93853002D02*
X151014000Y-94853002D01*
X152014000Y-81853002D02*
X152014000Y-93853002D01*
X151014000Y-80853002D02*
X152014000Y-81853002D01*
X138414000Y-80853002D02*
X151014000Y-80853002D01*
X137414000Y-81853002D02*
X138414000Y-80853002D01*
X137414000Y-93853002D02*
X137414000Y-81853002D01*
X138414000Y-94853002D02*
X137414000Y-93853002D01*
X88664000Y-106903002D02*
G75*
G03*
X88664000Y-106903002I-1100000J0D01*
G01*
X89789000Y-112903002D02*
X89789000Y-100903002D01*
X90789000Y-113903002D02*
X89789000Y-112903002D01*
X103389000Y-113903002D02*
X90789000Y-113903002D01*
X104389000Y-112903002D02*
X103389000Y-113903002D01*
X104389000Y-100903002D02*
X104389000Y-112903002D01*
X103389000Y-99903002D02*
X104389000Y-100903002D01*
X90789000Y-99903002D02*
X103389000Y-99903002D01*
X89789000Y-100903002D02*
X90789000Y-99903002D01*
X122439000Y-99903002D02*
X123439000Y-100903002D01*
X109839000Y-99903002D02*
X122439000Y-99903002D01*
X108839000Y-100903002D02*
X109839000Y-99903002D01*
X108839000Y-112903002D02*
X108839000Y-100903002D01*
X109839000Y-113903002D02*
X108839000Y-112903002D01*
X122439000Y-113903002D02*
X109839000Y-113903002D01*
X123439000Y-112903002D02*
X122439000Y-113903002D01*
X123439000Y-100903002D02*
X123439000Y-112903002D01*
X142489000Y-112903002D02*
X141489000Y-113903002D01*
X142489000Y-100903002D02*
X142489000Y-112903002D01*
X141489000Y-99903002D02*
X142489000Y-100903002D01*
X128889000Y-99903002D02*
X141489000Y-99903002D01*
X127889000Y-100903002D02*
X128889000Y-99903002D01*
X127889000Y-112903002D02*
X127889000Y-100903002D01*
X128889000Y-113903002D02*
X127889000Y-112903002D01*
X141489000Y-113903002D02*
X128889000Y-113903002D01*
X33895264Y-125953002D02*
G75*
G03*
X33895264Y-125953002I-1100000J0D01*
G01*
X81520250Y-125953002D02*
G75*
G03*
X81520250Y-125953002I-1100000J0D01*
G01*
X171064000Y-93853002D02*
X170064000Y-94853002D01*
X171064000Y-81853002D02*
X171064000Y-93853002D01*
X170064000Y-80853002D02*
X171064000Y-81853002D01*
X157464000Y-80853002D02*
X170064000Y-80853002D01*
X156464000Y-81853002D02*
X157464000Y-80853002D01*
X156464000Y-93853002D02*
X156464000Y-81853002D01*
X157464000Y-94853002D02*
X156464000Y-93853002D01*
X170064000Y-94853002D02*
X157464000Y-94853002D01*
X174389000Y-87853002D02*
G75*
G03*
X174389000Y-87853002I-1100000J0D01*
G01*
X189114000Y-80853002D02*
X190114000Y-81853002D01*
X176514000Y-80853002D02*
X189114000Y-80853002D01*
X175514000Y-81853002D02*
X176514000Y-80853002D01*
X175514000Y-93853002D02*
X175514000Y-81853002D01*
X176514000Y-94853002D02*
X175514000Y-93853002D01*
X189114000Y-94853002D02*
X176514000Y-94853002D01*
X190114000Y-93853002D02*
X189114000Y-94853002D01*
X190114000Y-81853002D02*
X190114000Y-93853002D01*
X194564000Y-93853002D02*
X194564000Y-81853002D01*
X195564000Y-94853002D02*
X194564000Y-93853002D01*
X208164000Y-94853002D02*
X195564000Y-94853002D01*
X209164000Y-93853002D02*
X208164000Y-94853002D01*
X209164000Y-81853002D02*
X209164000Y-93853002D01*
X208164000Y-80853002D02*
X209164000Y-81853002D01*
X195564000Y-80853002D02*
X208164000Y-80853002D01*
X194564000Y-81853002D02*
X195564000Y-80853002D01*
X212489000Y-87853002D02*
G75*
G03*
X212489000Y-87853002I-1100000J0D01*
G01*
X161539000Y-112903002D02*
X160539000Y-113903002D01*
X161539000Y-100903002D02*
X161539000Y-112903002D01*
X160539000Y-99903002D02*
X161539000Y-100903002D01*
X147939000Y-99903002D02*
X160539000Y-99903002D01*
X146939000Y-100903002D02*
X147939000Y-99903002D01*
X146939000Y-112903002D02*
X146939000Y-100903002D01*
X147939000Y-113903002D02*
X146939000Y-112903002D01*
X160539000Y-113903002D02*
X147939000Y-113903002D01*
X164864000Y-106903002D02*
G75*
G03*
X164864000Y-106903002I-1100000J0D01*
G01*
X166989000Y-113903002D02*
X165989000Y-112903002D01*
X179589000Y-113903002D02*
X166989000Y-113903002D01*
X180589000Y-112903002D02*
X179589000Y-113903002D01*
X180589000Y-100903002D02*
X180589000Y-112903002D01*
X179589000Y-99903002D02*
X180589000Y-100903002D01*
X166989000Y-99903002D02*
X179589000Y-99903002D01*
X165989000Y-100903002D02*
X166989000Y-99903002D01*
X165989000Y-112903002D02*
X165989000Y-100903002D01*
X198639000Y-99903002D02*
X199639000Y-100903002D01*
X186039000Y-99903002D02*
X198639000Y-99903002D01*
X185039000Y-100903002D02*
X186039000Y-99903002D01*
X185039000Y-112903002D02*
X185039000Y-100903002D01*
X186039000Y-113903002D02*
X185039000Y-112903002D01*
X198639000Y-113903002D02*
X186039000Y-113903002D01*
X199639000Y-112903002D02*
X198639000Y-113903002D01*
X199639000Y-100903002D02*
X199639000Y-112903002D01*
X202964000Y-106903002D02*
G75*
G03*
X202964000Y-106903002I-1100000J0D01*
G01*
X217689000Y-99903002D02*
X218689000Y-100903002D01*
X205089000Y-99903002D02*
X217689000Y-99903002D01*
X204089000Y-100903002D02*
X205089000Y-99903002D01*
X204089000Y-112903002D02*
X204089000Y-100903002D01*
X205089000Y-113903002D02*
X204089000Y-112903002D01*
X217689000Y-113903002D02*
X205089000Y-113903002D01*
X218689000Y-112903002D02*
X217689000Y-113903002D01*
X218689000Y-100903002D02*
X218689000Y-112903002D01*
X227214000Y-94853002D02*
X214614000Y-94853002D01*
X228214000Y-93853002D02*
X227214000Y-94853002D01*
X228214000Y-81853002D02*
X228214000Y-93853002D01*
X227214000Y-80853002D02*
X228214000Y-81853002D01*
X214614000Y-80853002D02*
X227214000Y-80853002D01*
X213614000Y-81853002D02*
X214614000Y-80853002D01*
X213614000Y-93853002D02*
X213614000Y-81853002D01*
X214614000Y-94853002D02*
X213614000Y-93853002D01*
X232664000Y-81853002D02*
X233664000Y-80853002D01*
X232664000Y-93853002D02*
X232664000Y-81853002D01*
X233664000Y-94853002D02*
X232664000Y-93853002D01*
X246264000Y-94853002D02*
X233664000Y-94853002D01*
X247264000Y-93853002D02*
X246264000Y-94853002D01*
X247264000Y-81853002D02*
X247264000Y-93853002D01*
X246264000Y-80853002D02*
X247264000Y-81853002D01*
X233664000Y-80853002D02*
X246264000Y-80853002D01*
X250589000Y-87853002D02*
G75*
G03*
X250589000Y-87853002I-1100000J0D01*
G01*
X266314000Y-81853002D02*
X266314000Y-93853002D01*
X265314000Y-80853002D02*
X266314000Y-81853002D01*
X252714000Y-80853002D02*
X265314000Y-80853002D01*
X251714000Y-81853002D02*
X252714000Y-80853002D01*
X251714000Y-93853002D02*
X251714000Y-81853002D01*
X252714000Y-94853002D02*
X251714000Y-93853002D01*
X265314000Y-94853002D02*
X252714000Y-94853002D01*
X266314000Y-93853002D02*
X265314000Y-94853002D01*
X224139000Y-99903002D02*
X236739000Y-99903002D01*
X223139000Y-100903002D02*
X224139000Y-99903002D01*
X223139000Y-112903002D02*
X223139000Y-100903002D01*
X224139000Y-113903002D02*
X223139000Y-112903002D01*
X236739000Y-113903002D02*
X224139000Y-113903002D01*
X237739000Y-112903002D02*
X236739000Y-113903002D01*
X237739000Y-100903002D02*
X237739000Y-112903002D01*
X236739000Y-99903002D02*
X237739000Y-100903002D01*
X241064000Y-106903002D02*
G75*
G03*
X241064000Y-106903002I-1100000J0D01*
G01*
X160101500Y-125953002D02*
G75*
G03*
X160101500Y-125953002I-1100000J0D01*
G01*
X245696188Y-125953002D02*
G75*
G03*
X245696188Y-125953002I-1100000J0D01*
G01*
X270764000Y-119953002D02*
X271764000Y-118953002D01*
X270764000Y-131953002D02*
X270764000Y-119953002D01*
X271764000Y-132953002D02*
X270764000Y-131953002D01*
X284364000Y-132953002D02*
X271764000Y-132953002D01*
X285364000Y-131953002D02*
X284364000Y-132953002D01*
X285364000Y-119953002D02*
X285364000Y-131953002D01*
X284364000Y-118953002D02*
X285364000Y-119953002D01*
X271764000Y-118953002D02*
X284364000Y-118953002D01*
X156776500Y-119953002D02*
X156776500Y-131953002D01*
X155776500Y-118953002D02*
X156776500Y-119953002D01*
X143176500Y-118953002D02*
X155776500Y-118953002D01*
X142176500Y-119953002D02*
X143176500Y-118953002D01*
X142176500Y-131953002D02*
X142176500Y-119953002D01*
X143176500Y-132953002D02*
X142176500Y-131953002D01*
X155776500Y-132953002D02*
X143176500Y-132953002D01*
X156776500Y-131953002D02*
X155776500Y-132953002D01*
X28189000Y-119953002D02*
X28189000Y-131953002D01*
X27189000Y-118953002D02*
X28189000Y-119953002D01*
X14589000Y-118953002D02*
X27189000Y-118953002D01*
X13589000Y-119953002D02*
X14589000Y-118953002D01*
X13589000Y-131953002D02*
X13589000Y-119953002D01*
X14589000Y-132953002D02*
X13589000Y-131953002D01*
X27189000Y-132953002D02*
X14589000Y-132953002D01*
X28189000Y-131953002D02*
X27189000Y-132953002D01*
X98543900Y-132823502D02*
X86095900Y-132823502D01*
X99050900Y-132316502D02*
X98543900Y-132823502D01*
X99050900Y-119589502D02*
X99050900Y-132316502D01*
X98543900Y-119082502D02*
X99050900Y-119589502D01*
X86095900Y-119082502D02*
X98543900Y-119082502D01*
X85588900Y-119589502D02*
X86095900Y-119082502D01*
X85588900Y-132316502D02*
X85588900Y-119589502D01*
X86095900Y-132823502D02*
X85588900Y-132316502D01*
X246951500Y-131953002D02*
X246951500Y-119953002D01*
X247951500Y-132953002D02*
X246951500Y-131953002D01*
X260551500Y-132953002D02*
X247951500Y-132953002D01*
X261551500Y-131953002D02*
X260551500Y-132953002D01*
X261551500Y-119953002D02*
X261551500Y-131953002D01*
X260551500Y-118953002D02*
X261551500Y-119953002D01*
X247951500Y-118953002D02*
X260551500Y-118953002D01*
X246951500Y-119953002D02*
X247951500Y-118953002D01*
X200402500Y-132823502D02*
X199895500Y-132316502D01*
X212850500Y-132823502D02*
X200402500Y-132823502D01*
X213357500Y-132316502D02*
X212850500Y-132823502D01*
X213357500Y-119589502D02*
X213357500Y-132316502D01*
X212857500Y-119082502D02*
X213357500Y-119589502D01*
X200395500Y-119082502D02*
X212857500Y-119082502D01*
X199895500Y-119589502D02*
X200395500Y-119082502D01*
X199895500Y-132316502D02*
X199895500Y-119589502D01*
X37401500Y-131953002D02*
X37401500Y-119953002D01*
X38401500Y-132953002D02*
X37401500Y-131953002D01*
X51001500Y-132953002D02*
X38401500Y-132953002D01*
X52001500Y-131953002D02*
X51001500Y-132953002D01*
X52001500Y-119953002D02*
X52001500Y-131953002D01*
X51001500Y-118953002D02*
X52001500Y-119953002D01*
X38401500Y-118953002D02*
X51001500Y-118953002D01*
X37401500Y-119953002D02*
X38401500Y-118953002D01*
X74814000Y-118953002D02*
X75814000Y-119953002D01*
X62214000Y-118953002D02*
X74814000Y-118953002D01*
X61214000Y-119953002D02*
X62214000Y-118953002D01*
X61214000Y-131953002D02*
X61214000Y-119953002D01*
X62214000Y-132953002D02*
X61214000Y-131953002D01*
X74814000Y-132953002D02*
X62214000Y-132953002D01*
X75814000Y-131953002D02*
X74814000Y-132953002D01*
X75814000Y-119953002D02*
X75814000Y-131953002D01*
X237739000Y-119953002D02*
X237739000Y-131953002D01*
X236739000Y-118953002D02*
X237739000Y-119953002D01*
X224139000Y-118953002D02*
X236739000Y-118953002D01*
X223139000Y-119953002D02*
X224139000Y-118953002D01*
X223139000Y-131953002D02*
X223139000Y-119953002D01*
X224139000Y-132953002D02*
X223139000Y-131953002D01*
X236739000Y-132953002D02*
X224139000Y-132953002D01*
X237739000Y-131953002D02*
X236739000Y-132953002D01*
X33639000Y-113903002D02*
X32639000Y-112903002D01*
X46239000Y-113903002D02*
X33639000Y-113903002D01*
X47239000Y-112903002D02*
X46239000Y-113903002D01*
X47239000Y-100903002D02*
X47239000Y-112903002D01*
X46239000Y-99903002D02*
X47239000Y-100903002D01*
X33639000Y-99903002D02*
X46239000Y-99903002D01*
X32639000Y-100903002D02*
X33639000Y-99903002D01*
X32639000Y-112903002D02*
X32639000Y-100903002D01*
X257301500Y-55253002D02*
X257301500Y-42753002D01*
X260301500Y-56753002D02*
X257301500Y-55253002D01*
X286301500Y-56753002D02*
X260301500Y-56753002D01*
X289301500Y-55253002D02*
X286301500Y-56753002D01*
X289301500Y-42753002D02*
X289301500Y-55253002D01*
X257301500Y-42753002D02*
X289301500Y-42753002D01*
X289126500Y-99903002D02*
X290126500Y-100903002D01*
X276526500Y-99903002D02*
X289126500Y-99903002D01*
X275526500Y-100903002D02*
X276526500Y-99903002D01*
X275526500Y-112903002D02*
X275526500Y-100903002D01*
X276526500Y-113903002D02*
X275526500Y-112903002D01*
X289126500Y-113903002D02*
X276526500Y-113903002D01*
X290126500Y-112903002D02*
X289126500Y-113903002D01*
X290126500Y-100903002D02*
X290126500Y-112903002D01*
X250332750Y-113903002D02*
X249332750Y-112903002D01*
X262932750Y-113903002D02*
X250332750Y-113903002D01*
X263932750Y-112903002D02*
X262932750Y-113903002D01*
X263932750Y-100903002D02*
X263932750Y-112903002D01*
X262932750Y-99903002D02*
X263932750Y-100903002D01*
X250332750Y-99903002D02*
X262932750Y-99903002D01*
X249332750Y-100903002D02*
X250332750Y-99903002D01*
X249332750Y-112903002D02*
X249332750Y-100903002D01*
X25807750Y-93853002D02*
X24807750Y-94853002D01*
X25807750Y-81853002D02*
X25807750Y-93853002D01*
X24807750Y-80853002D02*
X25807750Y-81853002D01*
X12207750Y-80853002D02*
X24807750Y-80853002D01*
X11207750Y-81853002D02*
X12207750Y-80853002D01*
X11207750Y-93853002D02*
X11207750Y-81853002D01*
X12207750Y-94853002D02*
X11207750Y-93853002D01*
X24807750Y-94853002D02*
X12207750Y-94853002D01*
X12207750Y-113903002D02*
X11207750Y-112903002D01*
X24807750Y-113903002D02*
X12207750Y-113903002D01*
X25807750Y-112903002D02*
X24807750Y-113903002D01*
X25807750Y-100903002D02*
X25807750Y-112903002D01*
X24807750Y-99903002D02*
X25807750Y-100903002D01*
X12207750Y-99903002D02*
X24807750Y-99903002D01*
X11207750Y-100903002D02*
X12207750Y-99903002D01*
X11207750Y-112903002D02*
X11207750Y-100903002D01*
X150722672Y-138703002D02*
G75*
G03*
X150722672Y-138703002I-1250000J0D01*
G01*
X26893672Y-138703002D02*
G75*
G03*
X26893672Y-138703002I-1250000J0D01*
G01*
X274551672Y-138703002D02*
G75*
G03*
X274551672Y-138703002I-1250000J0D01*
G01*
M02*
